<?xml version="1.0" standalone="no"?>
<!DOCTYPE svg PUBLIC "-//W3C//DTD SVG 20010904//EN"
 "http://www.w3.org/TR/2001/REC-SVG-20010904/DTD/svg10.dtd">
<svg version="1.0" xmlns="http://www.w3.org/2000/svg"
 width="512.000000pt" height="512.000000pt" viewBox="0 0 512.000000 512.000000"
 preserveAspectRatio="xMidYMid meet">

<g transform="translate(0.000000,512.000000) scale(0.100000,-0.100000)"
fill="#000000" stroke="none">
<path d="M1530 4604 c-60 -12 -128 -43 -730 -331 -528 -252 -641 -310 -672
-342 -67 -70 -61 -153 14 -230 33 -33 88 -65 230 -134 l188 -91 0 -354 c0
-243 4 -367 12 -394 20 -68 78 -123 167 -157 244 -94 596 -161 847 -161 l102
0 4 -182 c5 -197 15 -242 72 -329 l26 -38 -298 -3 -297 -3 -48 -28 c-67 -40
-100 -94 -105 -173 -6 -84 22 -142 89 -191 l49 -35 0 -246 0 -247 -40 -23
c-57 -32 -100 -110 -100 -181 0 -97 61 -183 149 -210 28 -8 414 -11 1422 -11
1314 0 1388 1 1451 18 125 35 223 120 282 242 l31 65 3 320 c4 356 0 391 -53
480 -19 32 -35 59 -35 61 0 2 130 4 288 4 l288 0 53 26 c150 75 158 291 15
376 l-34 20 0 253 c0 241 1 254 19 260 11 3 37 25 59 49 85 92 82 209 -7 297
-28 29 -61 51 -86 58 -27 7 -234 11 -649 11 -575 0 -608 1 -601 18 18 43 18
142 0 189 -22 56 -76 118 -127 144 l-38 19 0 146 c0 161 -9 196 -63 252 -43
46 -95 70 -161 78 -46 6 -62 13 -99 48 -35 32 -168 100 -638 325 -327 156
-628 295 -669 308 -74 24 -248 39 -310 27z m240 -176 c38 -9 446 -199 985
-459 l140 -68 -636 0 c-628 -1 -637 -1 -663 -22 -26 -20 -35 -65 -20 -103 15
-40 29 -41 676 -46 l627 -5 -552 -265 -552 -265 -110 1 c-86 0 -123 5 -170 21
-91 33 -1207 570 -1229 592 -19 19 -18 20 75 64 52 24 339 161 639 305 300
143 561 263 580 265 45 6 153 -2 210 -15z m1515 -713 c24 -23 25 -29 25 -162
l0 -138 -45 -24 c-48 -25 -87 -70 -111 -126 -16 -39 -19 -134 -5 -183 l10 -32
-215 0 -214 0 0 213 1 212 202 95 c149 70 211 105 237 132 42 45 80 49 115 13z
m176 -474 c22 -23 29 -39 29 -70 0 -88 -79 -231 -112 -203 -29 24 -72 127 -76
184 -4 53 -2 59 26 88 42 41 92 42 133 1z m-195 -382 c74 -79 183 -78 259 1
l29 30 643 0 c630 0 643 0 663 -20 11 -11 20 -29 20 -40 0 -11 -9 -29 -20 -40
-20 -20 -33 -20 -1075 -20 l-1055 0 0 60 0 60 253 0 253 0 30 -31z m1474 -269
c0 -20 -10 -20 -1029 -22 -1022 -3 -1030 -3 -1057 -24 -59 -44 -69 -68 -69
-169 0 -104 11 -129 75 -172 l33 -23 1023 0 c1017 0 1024 0 1024 -20 0 -20 -7
-20 -1305 -20 l-1306 0 3 156 3 156 130 33 c134 33 280 81 331 108 25 13 161
15 1087 16 1048 1 1057 1 1057 -19z m-2770 -329 c0 -158 1 -170 23 -201 12
-18 35 -43 50 -54 l28 -21 1391 -5 c1361 -5 1390 -5 1404 -24 19 -27 18 -60
-4 -80 -18 -15 -123 -16 -1413 -14 l-1394 3 -55 31 c-120 67 -152 148 -148
370 l3 149 50 6 c28 3 53 7 58 7 4 1 7 -74 7 -167z m2770 114 l0 -35 -1000 0
-1000 0 0 35 0 35 1000 0 1000 0 0 -35z m-1720 -675 c1109 -6 1025 0 1110 -77
24 -21 54 -60 66 -88 23 -49 24 -57 24 -350 0 -293 -1 -301 -24 -350 -30 -66
-89 -121 -154 -145 -52 -20 -81 -20 -1431 -20 -1344 0 -1378 0 -1395 19 -25
27 -17 72 14 88 20 10 314 13 1396 13 l1371 0 34 23 c19 12 44 42 57 67 21 43
22 54 22 305 0 292 -6 319 -71 366 l-34 24 -1386 5 c-1507 5 -1419 2 -1419 61
0 58 6 59 417 59 266 0 373 3 373 11 0 7 6 8 18 3 9 -5 465 -11 1012 -14z
m930 -515 l0 -235 -1311 0 c-1243 0 -1310 1 -1307 18 3 16 63 17 1034 22
l1031 5 35 27 c50 38 72 100 66 183 -7 82 -31 124 -88 153 l-44 22 -1018 0
c-1011 0 -1018 0 -1018 20 0 20 7 20 1310 20 l1310 0 0 -235z m-610 0 l0 -35
-1000 0 -1000 0 0 35 0 35 1000 0 1000 0 0 -35z"/>
</g>
</svg>
